<svg width="400" height="355" viewBox="0 0 400 355" fill="none" xmlns="http://www.w3.org/2000/svg">
<path d="M133.819 10.6524C154.562 -0.367132 181.015 -2.2641 204.045 2.3401C234.301 8.38369 249.325 7.80221 279.59 13.8458C297.426 17.411 313.059 40.3271 329.502 48.1056C349.254 57.457 353.296 65.9027 364.534 84.6436C368.147 90.6586 381.655 109.285 382.465 116.253C383.847 128.093 380.978 134.708 382.389 146.548C384.009 160.074 385.363 168.406 387.002 181.932C389.376 201.521 377.699 211.712 378.642 231.425C379.043 239.852 373.495 250.966 372.627 259.355C371.979 265.637 347.633 281.699 344.001 286.866C327.92 309.753 328.883 314.958 303.393 326.454C292.545 331.344 288.799 341.306 277.045 343.184C266.817 344.823 256.369 344.07 246.055 343.136C225.617 341.277 213.101 347.483 192.845 344.156C175.658 341.334 153.514 343.241 136.126 344.147C128.005 344.566 114.306 341.611 106.356 339.933C99.3309 338.446 80.3136 330.363 74.1461 326.674C60.9054 318.762 47.3788 304.768 41.5926 290.479C39.6861 285.77 39.1332 265.094 25.3588 245.571C12.7473 227.698 15.1114 227.917 10.5834 189.234C8.03826 167.5 13.0809 139.627 25.6829 121.754C34.081 109.848 37.2458 98.7803 38.9617 84.31C39.6099 78.9051 38.5518 73.3762 39.4097 67.9999C41.9358 52.2522 58.9036 43.835 73.7362 37.9725C88.4829 32.1387 102.858 25.2753 117.967 20.4614C129.349 16.8295 125.259 15.1994 133.819 10.6524ZM31.4882 79.0862C30.5063 73.033 20.7069 73.2904 19.5154 79.0862C19.1055 81.088 17.2848 83.2709 16.3125 85.1393C15.0446 87.5796 13.7006 89.9723 12.2802 92.3268C9.56346 96.8261 6.64652 101.135 4.5589 105.977C3.07183 109.428 3.02417 113.212 5.85532 116.044C8.22891 118.417 13.0524 119.552 15.9216 117.34C21.7746 112.831 26.8459 107.541 29.9153 100.706C31.5073 97.1693 32.613 93.9283 33.0515 90.0581C33.5091 85.9114 32.1269 83.0422 31.4882 79.0862ZM79.2746 24.1886C79.2555 28.1541 76.4148 30.2131 72.9736 31.4237C70.4856 32.3007 67.9309 32.2245 65.3762 31.786C62.8787 31.357 61.8587 27.5154 63.8224 25.9139C65.6336 24.4364 66.9967 23.2162 68.6935 21.9866C68.8365 21.8817 69.4752 21.4432 69.3512 21.5385C70.3331 20.8141 70.8288 20.347 72.0775 19.9561C73.4407 19.5272 74.6894 19.6034 76.0526 19.9561C77.9114 20.4518 79.2841 22.2916 79.2746 24.1886ZM96.2615 18.5739C95.8516 19.1554 95.4607 19.8417 94.965 20.347C94.1262 21.2144 93.0204 21.5767 91.8956 21.8817C89.8175 22.4441 87.8252 21.1858 87.177 19.2031C86.8815 18.2784 87.0817 17.0678 87.5678 16.248C88.0063 15.4949 88.9596 14.6465 89.8556 14.4845C91.0662 14.2748 92.172 14.0841 93.3922 14.4082C94.1071 14.5989 94.7934 15.085 95.4417 15.4568C96.4426 16.0288 96.9669 17.573 96.2615 18.5739ZM7.51397 243.636C4.41592 242.254 2.48082 238.145 1.46084 235.076C0.498062 232.197 0.0881645 229.08 0.00237205 226.049C-0.178745 219.624 10.0687 218.127 11.2984 224.523C11.7083 226.659 12.3183 228.613 13.3002 230.538C14.6538 233.217 16.1885 235.429 16.4745 238.498C16.9225 243.464 11.184 245.276 7.51397 243.636ZM24.5771 254.16C24.5771 254.856 24.4246 255.514 24.11 256.124C23.6429 257.239 22.928 258.125 21.8604 258.755C19.9443 259.87 17.5136 259.67 15.7691 258.326C14.6633 257.468 13.672 256.343 13.3383 254.932C13.1572 254.169 13.0619 253.378 13.0333 252.597C12.9761 251.062 13.7101 249.632 14.7205 248.526C15.7596 247.401 17.3038 246.906 18.7909 246.839C20.2208 246.772 21.8604 247.525 22.8613 248.526C23.8431 249.508 24.3579 250.814 24.4913 252.177C24.5676 252.587 24.6343 252.997 24.6439 253.397C24.6439 253.636 24.6153 253.903 24.5771 254.16ZM397.174 169.13C396.84 172.228 392.903 172.819 391.797 169.855C389.347 163.315 388.69 156.299 387.164 149.503C386.507 146.567 390.93 144.355 392.255 147.358C395.296 154.298 397.993 161.447 397.174 169.13ZM393.189 195.259C393.199 195.268 393.199 195.287 393.208 195.297C393.189 195.268 393.179 195.259 393.189 195.259ZM399.995 192.809C399.928 194.41 399.137 195.659 398.041 196.774C396.764 198.071 394.933 197.556 393.952 196.25C394.323 196.746 393.208 195.249 393.179 195.259C392.884 194.772 392.693 194.191 392.55 193.648C392.388 193.018 392.379 192.389 392.341 191.76C392.331 191.579 392.312 191.398 392.293 191.217C392.283 191.16 392.274 191.093 392.255 190.998C391.912 188.948 392.77 187.118 394.838 186.451C396.745 185.831 398.861 187.175 399.385 189.034C399.728 190.235 400.043 191.56 399.995 192.809ZM370.454 275.846C364.925 283.406 359.558 289.869 351.637 294.997C349.568 296.341 346.985 293.682 348.262 291.623C353.315 283.539 359.902 278.315 367.89 273.282C369.405 272.338 371.579 274.312 370.454 275.846ZM325.013 35.2177C319.379 35.6561 315.032 31.5667 311.505 27.687C307.787 23.5975 304.604 19.041 301.944 14.208C299.094 9.04144 306.462 4.93293 309.742 9.65151C312.563 13.7028 315.852 17.3061 319.522 20.6139C323.011 23.7596 326.748 26.3524 328.177 31.0615C328.845 33.2444 327.072 35.0556 325.013 35.2177ZM341.094 46.0656C340.064 45.0552 339.083 44.0161 338.053 42.9962C338.034 42.9771 337.643 42.6149 337.567 42.5291C337.186 42.2336 336.776 41.9762 336.433 41.633C335.946 41.1278 335.575 40.5463 335.336 39.9172C335.336 39.9076 335.327 39.9076 335.327 39.8981C334.631 38.6875 334.974 36.8096 336.309 36.1518C335.813 36.5617 335.946 36.4664 336.699 35.8659C337.033 35.6561 337.395 35.5322 337.786 35.475C338.606 35.2653 339.397 35.2653 340.217 35.456C341.227 35.6847 342.238 36.1614 343.153 36.6666C345.374 37.8963 346.871 39.8886 347.49 42.3289C348.444 46.0466 343.849 48.7633 341.094 46.0656ZM361.35 62.9953C359.978 64.0534 358.205 64.1297 356.689 63.3194C354.458 62.1374 352.676 60.2976 350.998 58.4483C349.101 56.3417 349.063 53.3961 350.998 51.2894C352.743 49.3829 356.441 49.259 358.157 51.2894C359.11 52.4143 360.197 53.5296 360.979 54.7783C361.732 55.989 362.351 57.2568 362.847 58.5818C363.438 60.1451 362.58 62.0421 361.35 62.9953Z" fill="#BC2026"/>
<g clip-path="url(#clip0)">
<path opacity="0.3" d="M202.277 354.283C276.547 354.283 336.755 350.598 336.755 346.052C336.755 341.506 276.547 337.82 202.277 337.82C128.006 337.82 67.7978 341.506 67.7978 346.052C67.7978 350.598 128.006 354.283 202.277 354.283Z" fill="#E76650"/>
<path d="M184.442 136.488L164.121 104C164.121 104 148.242 107.43 149.022 139.549L184.442 136.488Z" fill="#3C2A34"/>
<path d="M176.194 138.289L163.358 113.26C163.358 113.26 151.5 120.617 152.126 139.283L176.194 138.289Z" fill="#E76650"/>
<path d="M169.832 134.344C169.832 134.344 169.026 124.501 159.98 122.675L163.461 129.191C163.461 129.191 161.497 127.982 157.708 128.514C157.708 128.514 162.098 131.986 162.406 135.742C162.406 135.742 163.77 131.952 160.434 129.208C160.434 129.208 164.07 130.254 164.833 131.618C164.833 131.618 164.833 127.528 162.406 125.101C162.406 125.101 167.251 127.373 169.832 134.344Z" fill="#FBE4D3"/>
<path d="M231.952 136.488L252.273 104C252.273 104 268.153 107.43 267.373 139.549L231.952 136.488Z" fill="#3C2A34"/>
<path d="M240.201 138.289L253.028 113.26C253.028 113.26 264.886 120.617 264.26 139.283L240.201 138.289Z" fill="#E76650"/>
<path d="M246.563 134.344C246.563 134.344 247.369 124.501 256.415 122.675L252.933 129.191C252.933 129.191 254.897 127.982 258.687 128.514C258.687 128.514 254.297 131.986 253.988 135.742C253.988 135.742 252.625 131.952 255.96 129.208C255.96 129.208 252.325 130.254 251.562 131.618C251.562 131.618 251.562 127.528 253.988 125.101C253.988 125.101 249.144 127.373 246.563 134.344Z" fill="#FBE4D3"/>
<path d="M149.202 139.549C149.202 139.549 109.057 197.657 116.705 213.433C124.354 229.21 207.919 307.236 207.919 307.236C207.919 307.236 300.349 216.846 300.349 197.545C300.349 178.245 267.381 139.549 267.381 139.549C267.381 139.549 202.774 126.267 149.202 139.549Z" fill="#FBE4D3"/>
<path d="M123.796 347.021C123.796 347.021 70.2329 301.011 122.827 184.83C141.442 143.707 284.255 154.314 293.764 176.821C341.18 289.007 300.349 347.021 300.349 347.021H123.796Z" fill="#FBE4D3"/>
<path d="M122.819 184.855C122.819 184.855 108.706 366.467 316.683 279.721C316.683 279.721 319.084 318.365 300.349 347.021H116.705C116.705 347.021 75.0859 280.913 122.819 184.855Z" fill="#EFCAC4"/>
<path d="M207.601 165.212V202.227L199.79 217.172L209.908 204.396L219.014 217.172L211.297 200.864L209.908 163.9L207.601 165.212Z" fill="#3C2A34"/>
<path d="M267.724 262.735C267.724 262.735 272.749 296.124 259.167 307.236C259.167 307.236 260.324 298.37 259.167 288.921C259.167 288.921 250.713 314.567 225.067 318.888C225.067 318.888 242.884 324.29 257.195 297.556C257.195 297.556 258.275 309.971 257.195 314.027C257.195 314.035 277.713 301.345 267.724 262.735Z" fill="#FFFAEF"/>
<path d="M258.61 207.063C258.61 207.063 262.125 240.64 248.055 251.134C248.055 251.134 249.615 242.329 248.878 232.846C248.878 232.846 239.283 258.088 213.466 261.244C213.466 261.244 231.026 267.443 246.52 241.386C246.52 241.386 247.043 253.844 245.783 257.84C245.783 257.831 266.849 246.076 258.61 207.063Z" fill="#FFFAEF"/>
<path d="M144.297 262.735C144.297 262.735 139.273 296.124 152.855 307.236C152.855 307.236 151.697 298.37 152.855 288.921C152.855 288.921 161.309 314.567 186.954 318.888C186.954 318.888 169.137 324.29 154.827 297.556C154.827 297.556 153.746 309.971 154.827 314.027C154.827 314.035 134.308 301.345 144.297 262.735Z" fill="#FFFAEF"/>
<path d="M129.73 209.223C129.73 209.223 108.466 241.711 114.279 258.886C114.279 258.886 117.812 249.222 123.616 239.919C123.616 239.919 117.691 270.006 137.181 285.157C137.181 285.157 119.355 283.331 120.881 249.694C120.881 249.694 113.636 262.11 112.487 266.757C112.487 266.748 101.598 245.064 129.73 209.223Z" fill="#FFFAEF"/>
<path d="M161.034 222.985C161.034 222.985 174.042 251.332 200.999 262.435L185.282 242.715C185.282 242.715 208.064 258.345 224.15 250.749C224.15 250.749 210.662 261.269 194.911 249.874L204.292 265.942C204.274 265.942 172.412 258.354 161.034 222.985Z" fill="#FFFAEF"/>
<path d="M120.744 346.943C120.744 346.943 132.242 285.123 96.8817 272.896C70.13 263.644 57.1486 231.868 82.7599 212.422C82.7599 212.422 26.7613 218.647 53.5388 287.181L42.3408 272.887C42.3408 272.887 18.8473 349.85 120.744 346.943Z" fill="#EFCAC4"/>
<path d="M62.9019 247.19C62.9019 247.19 57.8774 280.578 71.459 291.691C71.459 291.691 70.3015 282.825 71.459 273.376C71.459 273.376 79.9132 299.022 105.559 303.343C105.559 303.343 87.7415 308.745 73.4311 282.01C73.4311 282.01 72.3507 294.426 73.4311 298.482C73.4311 298.482 52.9129 285.792 62.9019 247.19Z" fill="#FFFAEF"/>
<path d="M233.256 196.919C233.256 196.919 218.422 160.084 206.221 163.18C194.637 166.121 183.139 198.085 183.139 198.085C183.139 198.085 194.74 157.941 208.75 158.781C222.769 159.621 233.256 196.919 233.256 196.919Z" fill="#3C2A34"/>
<path d="M200.562 141.555L199.979 157.769H154.398L197.955 155.428L200.562 141.555Z" fill="#3C2A34"/>
<path d="M215.833 141.555L216.416 157.769H261.996L218.439 155.428L215.833 141.555Z" fill="#3C2A34"/>
<path d="M200.536 162.785C200.536 162.785 205.175 174.995 208.827 174.489C213.458 173.846 216.639 163.034 216.639 163.034C216.639 163.034 209.402 152.59 200.536 162.785Z" fill="#E76650"/>
<path d="M207.516 171.814C207.516 171.814 207.181 164.672 204.283 164.68C204.274 164.672 206.898 167.715 207.516 171.814Z" fill="#FBE4D3"/>
<path d="M209.402 171.814C209.402 171.814 209.736 164.672 212.634 164.68C212.643 164.672 210.019 167.715 209.402 171.814Z" fill="#FBE4D3"/>
<path d="M152.049 160.084H195.606C195.606 160.084 190.35 196.336 173.827 191.543C157.305 186.75 152.049 160.084 152.049 160.084Z" fill="#707173"/>
<path d="M152.049 160.187H195.606C195.606 160.187 190.35 187.076 173.827 183.02C157.305 178.973 152.049 160.187 152.049 160.187Z" fill="#FAB217"/>
<path d="M162.844 160.187H189.458C189.458 160.187 186.543 173.897 176.151 174.138C165.244 174.395 162.844 160.187 162.844 160.187Z" fill="#3C2A34"/>
<path d="M189.981 164.954C189.981 166.198 188.978 167.201 187.735 167.201C186.5 167.201 185.488 166.198 185.488 164.954C185.488 163.711 186.491 162.708 187.735 162.708C188.978 162.708 189.981 163.711 189.981 164.954Z" fill="#FBE4D3"/>
<path d="M264.346 160.084H220.789C220.789 160.084 226.688 196.053 243.21 191.26C259.733 186.467 264.346 160.084 264.346 160.084Z" fill="#707173"/>
<path d="M264.346 160.187H220.789C220.789 160.187 226.045 187.076 242.567 183.02C259.09 178.973 264.346 160.187 264.346 160.187Z" fill="#FAB217"/>
<path d="M253.551 160.187H226.936C226.936 160.187 229.852 173.897 240.244 174.138C251.15 174.395 253.551 160.187 253.551 160.187Z" fill="#3C2A34"/>
<path d="M248.381 164.954C248.381 166.198 249.384 167.201 250.627 167.201C251.87 167.201 252.873 166.198 252.873 164.954C252.873 163.711 251.87 162.708 250.627 162.708C249.392 162.708 248.381 163.711 248.381 164.954Z" fill="#FBE4D3"/>
<path d="M353.801 229.459C353.801 229.459 348.554 273.993 306.617 276.026L304.911 207.063C304.911 207.063 321.125 242.98 336.755 210.407C336.755 210.407 353.595 217.918 353.801 229.459Z" fill="#F8E2D2"/>
<path d="M333.737 193.575L336.755 251.58H330.153L328.13 193.575H333.737Z" fill="#3C2A34"/>
<path d="M336.653 208.04C336.653 208.04 318.184 208.795 321.133 223.131C324.074 237.467 334.115 251.203 345.287 244.344C356.442 237.476 359.494 210.081 336.653 208.04Z" fill="#F8E2D2"/>
<path d="M311.65 198.103L291.089 162.494L311.65 126.885H352.772L373.333 162.494L352.772 198.103H311.65Z" fill="#E76650"/>
<path d="M308.306 139.789C308.306 136.839 308.606 133.958 309.155 131.163L291.072 162.494L311.633 198.103H352.755L361.492 182.96C358.56 183.569 355.533 183.895 352.421 183.895C328.061 183.904 308.306 164.157 308.306 139.789Z" fill="#EE3A3D"/>
<path d="M350.92 194.364H313.502L294.776 162.494L313.502 130.623H350.92L369.646 162.494L350.92 194.364ZM314.814 192.075H349.617L367.006 162.494L349.617 132.912H314.814L297.425 162.494L314.814 192.075Z" fill="#FFF9EF"/>
<path d="M117.863 160.187C117.863 160.187 144.52 186.279 204.394 181.46C204.394 181.46 147.967 191.32 117.863 160.187Z" fill="#FFFAEF"/>
<path d="M108.2 173.846C108.2 173.846 145.163 198.094 203.931 183.192C203.931 183.192 142.068 200.855 108.2 173.846Z" fill="#FFFAEF"/>
<path d="M117.863 193.378C117.863 193.378 152.666 211.376 204.42 184.83C204.42 184.838 155.024 215.62 117.863 193.378Z" fill="#FFFAEF"/>
<path d="M298.531 160.187C298.531 160.187 271.874 186.279 211.991 181.46C212 181.46 268.427 191.32 298.531 160.187Z" fill="#FFFAEF"/>
<path d="M308.195 173.846C308.195 173.846 271.231 198.094 212.463 183.192C212.463 183.192 274.326 200.855 308.195 173.846Z" fill="#FFFAEF"/>
<path d="M298.531 193.378C298.531 193.378 263.728 211.376 211.974 184.83C211.974 184.838 261.371 215.62 298.531 193.378Z" fill="#FFFAEF"/>
<path d="M291.312 219.547C291.312 219.547 311.033 246.95 304.028 263.044C304.028 263.044 301.009 254.633 295.659 246.753C295.659 246.753 299.86 273.428 279.016 288.99C279.016 288.99 297.331 285.654 297.854 255.344C297.854 255.344 304.482 265.899 305.374 269.998C305.374 269.989 317.832 249.325 291.312 219.547Z" fill="#FFFAEF"/>
<path d="M314.242 172V169.074H304.535V164.275C306.203 161.012 308.591 157.011 311.699 152.271H319.711V164.631H322.062V169.074H319.711V172H314.242ZM309.348 164.699V164.863H314.406V156.072H314.297C313.148 157.84 312.223 159.326 311.521 160.529C310.82 161.723 310.095 163.113 309.348 164.699ZM332.562 172.547C329.883 172.547 327.764 171.617 326.205 169.758C324.646 167.889 323.867 165.333 323.867 162.088C323.867 158.834 324.646 156.291 326.205 154.459C327.773 152.627 329.892 151.711 332.562 151.711C335.233 151.711 337.348 152.627 338.906 154.459C340.465 156.282 341.244 158.82 341.244 162.074C341.244 165.319 340.465 167.876 338.906 169.744C337.348 171.613 335.233 172.547 332.562 172.547ZM330.539 166.559C331.049 167.579 331.724 168.09 332.562 168.09C333.401 168.09 334.071 167.579 334.572 166.559C335.083 165.538 335.338 164.048 335.338 162.088C335.338 160.128 335.087 158.652 334.586 157.658C334.085 156.665 333.41 156.168 332.562 156.168C331.715 156.168 331.036 156.665 330.525 157.658C330.024 158.652 329.773 160.128 329.773 162.088C329.773 164.048 330.029 165.538 330.539 166.559ZM349.064 163.879V159.996H351.471C352.227 159.996 352.824 159.814 353.262 159.449C353.708 159.085 353.932 158.588 353.932 157.959C353.932 157.339 353.708 156.852 353.262 156.496C352.815 156.132 352.195 155.949 351.402 155.949C350.628 155.949 349.999 156.168 349.516 156.605C349.033 157.034 348.791 157.594 348.791 158.287H343.568C343.577 156.309 344.32 154.723 345.797 153.529C347.273 152.326 349.224 151.725 351.648 151.725C353.982 151.725 355.832 152.217 357.199 153.201C358.576 154.176 359.264 155.498 359.264 157.166C359.264 158.333 358.881 159.326 358.115 160.146C357.35 160.958 356.361 161.473 355.148 161.691V161.801C356.616 161.965 357.783 162.462 358.648 163.291C359.514 164.111 359.947 165.187 359.947 166.518C359.947 168.359 359.173 169.826 357.623 170.92C356.074 172.005 353.991 172.547 351.375 172.547C348.987 172.547 347.05 171.95 345.564 170.756C344.088 169.553 343.299 167.944 343.199 165.93H348.723C348.741 166.586 348.996 167.105 349.488 167.488C349.98 167.862 350.65 168.049 351.498 168.049C352.264 168.049 352.879 167.857 353.344 167.475C353.818 167.083 354.055 166.568 354.055 165.93C354.055 165.283 353.822 164.781 353.357 164.426C352.902 164.061 352.264 163.879 351.443 163.879H349.064Z" fill="#FFF9EF"/>
</g>
<defs>
<clipPath id="clip0">
<rect width="333.333" height="250.274" fill="white" transform="translate(40 104)"/>
</clipPath>
</defs>
</svg>
